<svg id="visual" viewBox="0 0 900 600" width="900" height="600" xmlns="http://www.w3.org/2000/svg" xmlns:xlink="http://www.w3.org/1999/xlink" version="1.1"><rect x="0" y="0" width="900" height="600" fill="#001829"></rect><g fill="none" stroke="#297EA6" stroke-width="3"><path d="M0 -111.4L25 -34.4L105.9 -34.4L40.5 13.1L65.5 90.1L0 42.5L-65.5 90.1L-40.5 13.1L-105.9 -34.4L-25 -34.4Z" transform="translate(215 422)"></path><path d="M0 -49.1L11 -15.2L46.7 -15.2L17.8 5.8L28.8 39.7L0 18.7L-28.8 39.7L-17.8 5.8L-46.7 -15.2L-11 -15.2Z" transform="translate(892 475)"></path><path d="M0 -59.5L13.3 -18.4L56.6 -18.4L21.6 7L35 48.1L0 22.7L-35 48.1L-21.6 7L-56.6 -18.4L-13.3 -18.4Z" transform="translate(412 259)"></path><path d="M0 -55.7L12.5 -17.2L53 -17.2L20.2 6.6L32.7 45.1L0 21.3L-32.7 45.1L-20.2 6.6L-53 -17.2L-12.5 -17.2Z" transform="translate(656 109)"></path><path d="M0 -78.3L17.6 -24.2L74.5 -24.2L28.5 9.2L46 63.4L0 29.9L-46 63.4L-28.5 9.2L-74.5 -24.2L-17.6 -24.2Z" transform="translate(385 9)"></path><path d="M0 -105.7L23.7 -32.7L100.5 -32.7L38.4 12.5L62.1 85.5L0 40.4L-62.1 85.5L-38.4 12.5L-100.5 -32.7L-23.7 -32.7Z" transform="translate(664 357)"></path><path d="M0 -68L15.3 -21L64.6 -21L24.7 8L39.9 55L0 26L-39.9 55L-24.7 8L-64.6 -21L-15.3 -21Z" transform="translate(500 559)"></path><path d="M0 -80.2L18 -24.8L76.3 -24.8L29.1 9.5L47.2 64.9L0 30.6L-47.2 64.9L-29.1 9.5L-76.3 -24.8L-18 -24.8Z" transform="translate(25 138)"></path><path d="M0 -102.9L23.1 -31.8L97.8 -31.8L37.4 12.1L60.5 83.2L0 39.3L-60.5 83.2L-37.4 12.1L-97.8 -31.8L-23.1 -31.8Z" transform="translate(884 206)"></path><path d="M0 -62.3L14 -19.2L59.2 -19.2L22.6 7.4L36.6 50.4L0 23.8L-36.6 50.4L-22.6 7.4L-59.2 -19.2L-14 -19.2Z" transform="translate(30 579)"></path></g></svg>